<svg id="Layer_1" data-name="Layer 1" xmlns="http://www.w3.org/2000/svg" viewBox="0 0 607.46 310"><defs><style>.cls-1{fill:#0c0f13;}.cls-2{fill:#e82228;}.cls-3{fill:#231f20;}</style></defs><path class="cls-1" d="M243.67,75.55h0c-2,0-4.1,0-6.15,0-1.31,0-2,.37-2,1.83q.06,8.31,0,16.62c0,1.37.52,2,1.91,1.94,4.1-.06,8.19,0,12.29-.14a7.24,7.24,0,0,0,6.48-4.49,12.76,12.76,0,0,0,1-8.46c-1.16-5-4.53-7.77-9.23-7.32-1.43.14-2.89,0-4.33,0M223,96.1V67.56c0-3.23,0-3.26,3.05-3.27,7.59,0,15.17.09,22.76,0,13-.19,22.43,11.75,21.38,23.09s-9.28,19.49-20.22,19.58c-3.61,0-7.23,0-10.84,0-4,0-3.6-.19-3.61,3.78,0,4.81,0,9.63,0,14.45,0,2.91-.08,2.94-3.09,3-2.16.06-4.33.08-6.49,0-2.79-.08-2.87-.13-2.9-2.85,0-4.58,0-9.15,0-13.73V96.1"/><path class="cls-1" d="M343.3,103.64c0,6.5.81,8.69,4.14,11.69,5.21,4.68,11.73,3.83,15.63.08,4.34-4.16,5.55-12,2.88-17.39-3.05-6.15-9.81-8.39-14.7-6.76-5.53,1.86-8,5.35-7.95,12.38m.36,18.38c-.58.92-.32,2-.33,3,0,5.91,0,11.82,0,17.72,0,4.41,0,4.42-4.6,4.48-1.69,0-3.38-.07-5.06,0-1.91.1-2.61-.84-2.58-2.6,0-.84,0-1.69,0-2.53q0-28.75,0-57.5c0-3.43,0-3.51,3.34-3.48,2.27,0,4.9-.86,6.72.44s-.08,4.12,1,6.06a.7.7,0,0,0,.88-.31c6.89-9.48,23-9.94,31.57,1.29a27.39,27.39,0,0,1-.67,33.53A19.1,19.1,0,0,1,346,123.73c-.64-.62-.91-1.75-2.3-1.71"/><path class="cls-1" d="M400.17,103.11c0,1.82,0,3,0,4.23.19,7.86,9.7,13.37,16.84,10.11,6.62-3,10.28-15.23,3.51-22.75a12.21,12.21,0,0,0-17.65-.24c-2.72,2.75-2.94,5.85-2.7,8.65m.43,18.58c-.81,1.18-.43,2.56-.44,3.83-.05,6.15,0,12.29,0,18.43,0,3.25-.05,3.26-3.13,3.29-2.29,0-4.58,0-6.87,0-1.71,0-2.38-.78-2.36-2.41,0-1.92,0-3.85,0-5.78q0-26.73,0-53.48c0-.72.07-1.45,0-2.17-.18-1.78.73-2.32,2.35-2.28,2,0,4.09,0,6.14,0,1.66,0,2.41.69,2.32,2.4a10.64,10.64,0,0,0,.1,3.71c.83.47,1.08,0,1.37-.38,9.85-11.06,28.21-8.25,34.61,7.54,3.7,9.13,2.63,18.12-3,26.46-6.88,10.21-22.71,10.78-30,1.64-.29-.36-.52-.81-1.12-.82"/><path class="cls-1" d="M310.6,104.56c-.1-1.07-.14-2.16-.32-3.22-.95-5.82-4.95-9.83-10.69-10.57A11.57,11.57,0,0,0,287.88,98c-2.29,5.47-2.06,10.87,1.3,15.77,4.62,6.75,14.75,6.29,19.13-.63a15.76,15.76,0,0,0,2.29-8.58m12.56,0c-.09,13.55-9.45,24.3-24.37,24.43-14.59.13-25.13-10.14-24.9-24.61.21-13.34,9.21-24.07,24.7-24.18,14.91-.1,24.56,11.33,24.57,24.36"/><path class="cls-1" d="M557.68,88.37a21.18,21.18,0,0,1,9.75-6.82A27,27,0,0,1,576,80.21c7.2.06,12.15,4.63,13.34,12.17a41.71,41.71,0,0,1,.49,6.11c0,8.55,0,17.1,0,25.65,0,.72,0,1.45,0,2.17a1.75,1.75,0,0,1-2,1.92c-2.53,0-5.06,0-7.59-.06-2.36-.07-2.64-.34-2.65-2.79,0-7,0-14,0-20.95,0-2.05-.11-4.1-.32-6.13-.6-5.86-5.12-8.65-10.59-6.46-4,1.62-8.83,6.27-8.49,12.21.39,6.84.11,13.72.09,20.59,0,3.47-.06,3.5-3.66,3.57-2.17,0-4.34,0-6.5,0a1.9,1.9,0,0,1-2.13-2.27c0-.6,0-1.2,0-1.8q0-20.06,0-40.1c0-2.79,0-2.84,2.75-2.88,2.53,0,5.39-.69,7.49.27,2.43,1.11.06,4.44,1.62,6.94"/><path class="cls-1" d="M503.49,88.39c5.75-6.51,12.6-8.73,20.47-7.92,5.7.59,9,4.14,10.59,9.46a29.87,29.87,0,0,1,1.22,8.56q0,13.2,0,26.4c0,3.29,0,3.3-3.48,3.31-1.93,0-3.86,0-5.79,0-3-.06-3.08-.14-3.1-3.05,0-7.23,0-14.47,0-21.7a26,26,0,0,0-.47-6.11c-1.26-5.29-5.34-7.45-10.46-5.6a12.86,12.86,0,0,0-8.29,11.9c0,6.63,0,13.26,0,19.89,0,4.63,0,4.64-4.79,4.73-1.69,0-3.38-.08-5.07,0-1.91.09-2.6-.82-2.5-2.62.05-1.08,0-2.17,0-3.25q0-19,0-38c0-3.22,0-3.23,3.09-3.25,2.05,0,4.1,0,6.15,0,1.52,0,2.14.67,2.07,2.21a12.47,12.47,0,0,0,.38,5"/><path class="cls-1" d="M467.29,96.07q0-14.28,0-28.56c0-3.15.05-3.17,3.25-3.22,2.29,0,4.58-.06,6.87,0,2.48.06,2.53.15,2.61,2.75,0,.37,0,.73,0,1.09v55.32c0,.84,0,1.69,0,2.53,0,1.41-.56,2.26-2.15,2.23-2.77,0-5.54,0-8.31,0-1.76,0-2.27-.91-2.25-2.51,0-4.34,0-8.68,0-13,0-5.54,0-11.09,0-16.63Z"/><path class="cls-2" d="M153.14,100.5a45.8,45.8,0,1,0-44.43,46.11c25.27-.77,44.44-21.2,44.43-46.11m46.39-.48a61.79,61.79,0,0,1-1.68,14.27c-.4,1.92-.62,3.88-1,5.81a105.53,105.53,0,0,1-3.34,11.27c-.84,2.54-1.59,5.11-2.41,7.65-.5,1.57-1,3.15-1.62,4.68-1.46,3.63-2.65,7.37-4.17,11-1.95,4.62-3.82,9.29-5.83,13.89-2.36,5.39-4.68,10.8-7.28,16.07-3.19,6.49-6.2,13.07-9.39,19.55-2.28,4.63-5,9-6.89,13.9a51,51,0,0,1-2.81,5.15c-2.5,4.7-4.94,9.43-7.44,14.13-1.51,2.84-3.07,5.65-4.63,8.46-2.72,4.86-5.41,9.74-8.19,14.56-1.83,3.19-3.77,6.32-5.51,9.54-3.38,6.29-7.3,12.24-10.91,18.39-2.21,3.77-4.78,7.34-7.27,10.95-1.26,1.83-2.42,1.62-3.51-.31-1.69-3-3.27-6-5.24-8.88-1.16-1.66-2-3.53-3-5.31-3.17-5.61-6.65-11-9.7-16.71-1.34-2.49-2.89-4.87-4.28-7.33-1.51-2.67-2.93-5.38-4.43-8.06-1.65-2.94-3.42-5.82-5-8.81-2.15-4.1-4.66-8-6.61-12.21-.59-1.28-1.36-2.49-2-3.72-3-5.33-5.77-10.78-8.47-16.26-1.58-3.24-3.43-6.34-5.08-9.55-1.19-2.3-2.23-4.67-3.36-7-2.71-5.56-5.47-11.1-8.14-16.69-1.35-2.82-2.58-5.71-3.82-8.58-2.67-6.19-5.45-12.34-7.95-18.6s-4.84-12.43-6.83-18.81c-1.19-3.83-2.48-7.63-3.5-11.5-.81-3-1.33-6.13-2-9.21A71.14,71.14,0,0,1,15,101a65.48,65.48,0,0,1,.49-8,103,103,0,0,1,2.2-14.2A67.37,67.37,0,0,1,21,68.45a80.66,80.66,0,0,1,5-11.14c3.27-5.64,6.54-11.25,11.1-16,1.46-1.53,2.66-3.31,4.14-4.82A93.21,93.21,0,0,1,59.92,21.78a83.09,83.09,0,0,1,14-6.72,105.27,105.27,0,0,1,11.91-3.74A73.88,73.88,0,0,1,98.6,9.25c2.75-.16,5.49-.45,8.26-.47a101.35,101.35,0,0,1,22,2.45,61.19,61.19,0,0,1,11.17,3.63c2.81,1.2,5.73,2.18,8.46,3.58A96.62,96.62,0,0,1,166.58,30.3,93.46,93.46,0,0,1,182,46.77a86.67,86.67,0,0,1,11,20.15c.87,2.27,1.83,4.5,2.57,6.83,2,6.18,2.75,12.58,3.57,19,.31,2.43.34,4.86.41,7.29"/><path class="cls-1" d="M96.08,82.34c3.38-.26,6.77,1.5,9.65,4.47A16.3,16.3,0,0,0,106.94,88a1.44,1.44,0,0,0,2.11,0c.64-.59,1.25-1.2,1.86-1.82,4.83-4.91,13.84-4.89,18.55-.57a13.9,13.9,0,0,1,2.14,17.68,20.85,20.85,0,0,1-3.42,3.9,2.13,2.13,0,0,1-3.27-.86c-.17-.53.18-.88.51-1.22.82-.85,1.69-1.66,2.45-2.56a10.14,10.14,0,0,0,0-13.6A9.71,9.71,0,0,0,115.43,87a35.85,35.85,0,0,0-5.35,4.64c-1.84,1.67-2.54,1.67-4.36-.07A37.62,37.62,0,0,0,101,87.28a9.86,9.86,0,0,0-15.19,5.83A10,10,0,0,0,88,102.39c.74.82,1.54,1.59,2.29,2.39.44.48,1.27.85.51,1.72-1.06,1.22-2.08,1.53-3,.66a18.15,18.15,0,0,1-5-7.09A13.58,13.58,0,0,1,88,84.21c2.07-1.44,4.17-2,8-1.87"/><path class="cls-1" d="M120.48,101.74c-.81,3.24.8,5.42,3.13,7.35,1.09.9,2,2,3.07,2.94a5.38,5.38,0,0,1,1.26,1.7,2.15,2.15,0,0,1-.69,2.74c-.94.79-1.77.37-2.51-.32-2-1.88-4-3.76-6-5.67-3.12-3-6.22-6-9.34-9-1.61-1.55-2.1-1.58-3.74,0-4.68,4.44-9.32,8.93-14,13.4-.57.54-1.16,1.07-1.77,1.56a1.67,1.67,0,0,1-2,.31,2.11,2.11,0,0,1-1.09-2,3,3,0,0,1,1-2.29c5.93-5.75,11.84-11.53,17.79-17.27,1.38-1.33,2.28-1.3,3.66,0,1.55,1.45,3.06,3,4.59,4.43l.67.66c.35.33.74.67,1.25.5s.4-.77.45-1.22c.23-2.15.82-2.63,2.79-2.41a1.37,1.37,0,0,1,1.42,1.52v3.07"/><path class="cls-1" d="M120.06,114.78a1.6,1.6,0,0,1-.64,1c-3.22,3.22-6.42,6.48-9.68,9.66-1.45,1.41-2.13,1.39-3.59,0-3.18-3.15-6.31-6.35-9.45-9.55-.49-.49-1.12-1-.41-1.77.86-1,1.87-1.29,2.63-.59,1.56,1.43,3,3,4.53,4.46,1,1,2,2,3,3,1.37,1.22,1.71,1.22,3.14-.17,2.32-2.24,4.57-4.55,6.88-6.8,1.23-1.19,2.31-1.08,3.31.25a2.71,2.71,0,0,1,.25.53"/><polygon class="cls-3" points="103.72 108.01 103.72 108.01 103.72 111.44 107.16 111.44 107.16 108.01 103.72 108.01"/><polygon class="cls-3" points="103.72 112.25 103.72 112.25 103.72 115.69 107.16 115.69 107.16 112.25 103.72 112.25"/><polygon class="cls-3" points="108.08 108.01 108.08 108.01 108.08 111.44 111.52 111.44 111.52 108.01 108.08 108.01"/><polygon class="cls-3" points="108.08 112.25 108.08 112.25 108.08 115.69 111.52 115.69 111.52 112.25 108.08 112.25"/><path class="cls-3" d="M550,183.11h-5.83l-6.86,11.41-6.86-11.41h-6.3l9.94,16.51v9.17H540v-9.1Zm-50.17,25.68h5.94V188H514v-4.85H491.61V188h8.22Zm-26.67-16.36a4.07,4.07,0,0,1-1.39,3.3,6.19,6.19,0,0,1-4.07,1.18h-4.84V188h4.84a6.25,6.25,0,0,1,4.07,1.15,4.07,4.07,0,0,1,1.39,3.32m6.5,16.36-5.76-8.25a8.4,8.4,0,0,0,5.28-8.11,8.51,8.51,0,0,0-5.23-8.18,14.21,14.21,0,0,0-5.92-1.14H456.92v25.68h5.94v-7.15h5.46l4.95,7.15ZM427.21,204v-5.94h11.92v-4.62H427.21v-5.58h13.5v-4.77H421.3v25.68h19.88V204Zm-32.61-7.15h-4.84V188h4.84a6.23,6.23,0,0,1,4.07,1.15,4.07,4.07,0,0,1,1.4,3.32,4,4,0,0,1-1.4,3.28,6.23,6.23,0,0,1-4.07,1.16m.33-13.76H383.82v25.68h5.94v-7.08h5.17a14.43,14.43,0,0,0,5.93-1.12,8.64,8.64,0,0,0,3.87-3.23,8.9,8.9,0,0,0-3.87-13.11,14.26,14.26,0,0,0-5.93-1.14m-40.64,21.06a8.1,8.1,0,0,1-4.1-1,7.39,7.39,0,0,1-2.88-2.91,9.15,9.15,0,0,1,0-8.51,7.42,7.42,0,0,1,2.88-2.92,8.62,8.62,0,0,1,8.21,0,7.55,7.55,0,0,1,2.88,2.92,9.15,9.15,0,0,1,0,8.51,7.53,7.53,0,0,1-2.88,2.91,8.11,8.11,0,0,1-4.11,1m0,5.06a15,15,0,0,0,7.19-1.72,13.07,13.07,0,0,0,5-4.75,13.09,13.09,0,0,0-5-18.36,15.83,15.83,0,0,0-14.39,0,12.79,12.79,0,0,0-5,4.75,13.09,13.09,0,0,0,5,18.36,15.08,15.08,0,0,0,7.2,1.72m-34.14-16.8a4.07,4.07,0,0,1-1.4,3.3,6.17,6.17,0,0,1-4.07,1.18h-4.84V188h4.84a6.23,6.23,0,0,1,4.07,1.15,4.07,4.07,0,0,1,1.4,3.32m6.49,16.36-5.76-8.25a8.36,8.36,0,0,0,5.28-8.11,8.48,8.48,0,0,0-5.22-8.18,14.26,14.26,0,0,0-5.93-1.14H303.9v25.68h5.94v-7.15h5.47l4.95,7.15ZM277.2,196.87h-4.84V188h4.84a6.25,6.25,0,0,1,4.07,1.15,4.07,4.07,0,0,1,1.39,3.32,4,4,0,0,1-1.39,3.28,6.25,6.25,0,0,1-4.07,1.16m.33-13.76H266.42v25.68h5.94v-7.08h5.17a14.38,14.38,0,0,0,5.92-1.12,8.54,8.54,0,0,0,3.87-3.23,8.9,8.9,0,0,0-3.87-13.11,14.21,14.21,0,0,0-5.92-1.14"/></svg>