<?xml version="1.0" encoding="utf-8"?>
<!-- Generator: Adobe Illustrator 25.4.1, SVG Export Plug-In . SVG Version: 6.00 Build 0)  -->
<svg version="1.1" id="Layer_1" xmlns="http://www.w3.org/2000/svg" xmlns:xlink="http://www.w3.org/1999/xlink" x="0px" y="0px"
	 viewBox="0 0 254.2 442.6" style="enable-background:new 0 0 254.2 442.6;" xml:space="preserve">
<style type="text/css">
	.st0{opacity:0.2;fill:none;stroke:#BD9C2F;stroke-miterlimit:10;}
</style>
<path class="st0" d="M188.9,150.3c-0.5-33.6-27.4-59.9-60.7-59.6C93.8,91,67.4,119.4,68.7,153c1.3,32.7,28.1,58.7,61.8,57.7
	C163.7,209.8,188.9,183,188.9,150.3 M249.7,149.7c0.2,6.3-0.9,12.5-2.2,18.7c-0.5,2.5-0.8,5.1-1.3,7.6c-1.1,5-2.8,9.9-4.4,14.8
	c-1.1,3.3-2.1,6.7-3.2,10c-0.7,2.1-1.3,4.1-2.1,6.1c-1.9,4.8-3.5,9.7-5.5,14.4c-2.6,6.1-5,12.2-7.7,18.2c-3.1,7.1-6.1,14.2-9.5,21.1
	c-4.2,8.5-8.1,17.1-12.3,25.6c-3,6.1-6.6,11.8-9,18.2c-0.9,2.3-2.5,4.5-3.7,6.8c-3.3,6.2-6.5,12.4-9.8,18.5c-2,3.7-4,7.4-6.1,11.1
	c-3.6,6.4-7.1,12.8-10.7,19.1c-2.4,4.2-5,8.3-7.2,12.5c-4.4,8.2-9.6,16.1-14.3,24.1c-2.9,4.9-6.3,9.6-9.5,14.4
	c-1.7,2.4-3.2,2.1-4.6-0.4c-2.2-3.9-4.3-7.9-6.9-11.6c-1.5-2.2-2.6-4.6-3.9-7c-4.1-7.4-8.7-14.5-12.7-21.9c-1.8-3.3-3.8-6.4-5.6-9.6
	c-2-3.5-3.8-7.1-5.8-10.6c-2.2-3.9-4.5-7.6-6.5-11.6c-2.8-5.4-6.1-10.5-8.7-16c-0.8-1.7-1.8-3.3-2.7-4.9c-3.9-7-7.6-14.1-11.1-21.3
	c-2.1-4.2-4.5-8.3-6.7-12.5c-1.6-3-2.9-6.1-4.4-9.2c-3.6-7.3-7.2-14.6-10.7-21.9c-1.8-3.7-3.4-7.5-5-11.3
	c-3.5-8.1-7.2-16.2-10.4-24.4c-3.2-8.1-6.3-16.3-8.9-24.7c-1.6-5-3.3-10-4.6-15.1c-1.1-4-1.7-8-2.6-12.1c-1-4.7-1.3-9.4-1.6-14.1
	c-0.2-3.4,0.4-7,0.6-10.5c0.5-6.3,1.6-12.5,2.9-18.6c1-4.6,2.6-9.1,4.3-13.5c2-5,3.9-10,6.6-14.6c4.3-7.4,8.6-14.8,14.6-21
	c1.9-2,3.5-4.3,5.4-6.3c7.3-7.5,15.5-13.9,24.5-19.3c5.8-3.5,11.9-6.4,18.3-8.8c5.1-1.9,10.3-3.6,15.6-4.9
	c5.5-1.3,11.1-2.4,16.8-2.7c3.6-0.2,7.2-0.6,10.8-0.6c9.8,0,19.4,1.1,28.9,3.2c5,1.1,9.9,2.7,14.7,4.8c3.7,1.6,7.5,2.9,11.1,4.7
	c8.4,4.3,16.4,9.4,23.7,15.6c7.6,6.4,14.3,13.6,20.2,21.6c6,8.2,10.8,17,14.4,26.4c1.1,3,2.4,5.9,3.4,8.9c2.6,8.1,3.6,16.5,4.7,24.9
	C249.6,143.3,249.6,146.5,249.7,149.7"/>
</svg>
