<svg id="Layer_1" data-name="Layer 1" xmlns="http://www.w3.org/2000/svg" viewBox="0 0 254.25 442.61"><defs><style>.cls-1{fill:#0c0f13;}.cls-2{fill:#e82228;}.cls-3{fill:#231f20;}</style></defs><path class="cls-1" d="M21.06,346.39h0c-1.34,0-2.69,0-4,0-.85,0-1.31.25-1.3,1.2,0,3.63,0,7.25,0,10.88,0,.89.34,1.28,1.25,1.27,2.68-.05,5.36,0,8-.09a4.74,4.74,0,0,0,4.24-2.95,8.32,8.32,0,0,0,.67-5.53c-.76-3.25-3-5.08-6-4.79-.94.09-1.89,0-2.83,0M7.55,359.84V341.17c0-2.12,0-2.14,2-2.15,5,0,9.92.07,14.89,0,8.49-.13,14.68,7.69,14,15.11s-6.07,12.75-13.23,12.81c-2.37,0-4.73,0-7.09,0-2.66,0-2.36-.12-2.37,2.48,0,3.15,0,6.3,0,9.45,0,1.91-.05,1.93-2,2-1.41,0-2.83.05-4.25,0-1.82-.05-1.87-.08-1.89-1.87,0-3,0-6,0-9V359.84"/><path class="cls-1" d="M86.25,364.78c0,4.25.53,5.68,2.71,7.64a7.34,7.34,0,0,0,10.23.06,10.39,10.39,0,0,0,1.88-11.38,8.19,8.19,0,0,0-9.62-4.42c-3.62,1.21-5.21,3.49-5.2,8.1m.24,12a3.46,3.46,0,0,0-.22,2c0,3.87,0,7.73,0,11.6,0,2.88,0,2.89-3,2.92-1.11,0-2.21,0-3.32,0s-1.71-.54-1.68-1.7c0-.55,0-1.1,0-1.65q0-18.81,0-37.62c0-2.25,0-2.3,2.18-2.28,1.49,0,3.21-.56,4.4.28s0,2.7.67,4a.45.45,0,0,0,.57-.21c4.51-6.19,15-6.5,20.66.85a17.94,17.94,0,0,1-.43,21.94,12.5,12.5,0,0,1-18.29,1c-.42-.4-.6-1.15-1.5-1.12"/><path class="cls-1" d="M123.46,364.43c0,1.19,0,2,0,2.76.11,5.15,6.34,8.76,11,6.62,4.33-2,6.73-10,2.3-14.89a8,8,0,0,0-11.55-.16,6.65,6.65,0,0,0-1.77,5.67m.28,12.15a4.17,4.17,0,0,0-.28,2.51c0,4,0,8,0,12.06,0,2.13,0,2.14-2,2.15-1.5,0-3,0-4.49,0-1.13,0-1.56-.5-1.55-1.57,0-1.26,0-2.52,0-3.78q0-17.5,0-35c0-.47,0-.95,0-1.41-.12-1.17.48-1.52,1.53-1.5,1.34,0,2.68,0,4,0,1.09,0,1.58.46,1.52,1.57a7,7,0,0,0,.07,2.43c.54.31.7,0,.89-.25,6.45-7.24,18.46-5.4,22.65,4.94a17.68,17.68,0,0,1-2,17.31c-4.51,6.68-14.86,7.06-19.62,1.07-.18-.23-.34-.53-.73-.54"/><path class="cls-1" d="M64.85,365.38c-.07-.71-.09-1.42-.2-2.11a7.91,7.91,0,0,0-7-6.91A7.58,7.58,0,0,0,50,361.08a10.36,10.36,0,0,0,.85,10.32A7.52,7.52,0,0,0,63.35,371a10.22,10.22,0,0,0,1.5-5.61m8.22,0c-.06,8.86-6.18,15.9-15.95,16-9.54.09-16.44-6.63-16.29-16.11.14-8.72,6-15.74,16.17-15.81,9.75-.07,16.06,7.41,16.07,15.94"/><path class="cls-1" d="M226.53,354.78a13.8,13.8,0,0,1,6.38-4.46,17.78,17.78,0,0,1,5.58-.88c4.72,0,7.95,3,8.73,8a26.64,26.64,0,0,1,.32,4c0,5.59,0,11.18,0,16.78,0,.47,0,.94,0,1.42a1.14,1.14,0,0,1-1.34,1.25c-1.66,0-3.31,0-5,0s-1.72-.23-1.73-1.83c0-4.57,0-9.14,0-13.71,0-1.34-.07-2.68-.21-4-.39-3.84-3.35-5.66-6.93-4.23-2.65,1.06-5.78,4.1-5.55,8,.25,4.48.07,9,0,13.47,0,2.28,0,2.29-2.39,2.34-1.42,0-2.84,0-4.26,0a1.24,1.24,0,0,1-1.39-1.48c0-.39,0-.79,0-1.18q0-13.12,0-26.24c0-1.83,0-1.86,1.8-1.89s3.53-.45,4.9.18c1.59.73,0,2.91,1.06,4.54"/><path class="cls-1" d="M191.07,354.8a14.75,14.75,0,0,1,13.4-5.19c3.72.39,5.89,2.71,6.92,6.19a19.36,19.36,0,0,1,.81,5.6c0,5.76,0,11.52,0,17.28,0,2.15,0,2.16-2.27,2.16-1.26,0-2.53,0-3.79,0-2,0-2-.09-2-2,0-4.74,0-9.47,0-14.2a17.86,17.86,0,0,0-.31-4c-.82-3.46-3.5-4.88-6.84-3.67a8.43,8.43,0,0,0-5.43,7.79c0,4.34,0,8.68,0,13,0,3,0,3-3.14,3.09-1.1,0-2.21-.05-3.31,0-1.25.05-1.7-.54-1.64-1.72,0-.71,0-1.42,0-2.13V352.18c0-2.11,0-2.12,2-2.13,1.34,0,2.68,0,4,0,1,0,1.4.43,1.35,1.45a8.2,8.2,0,0,0,.25,3.29"/><path class="cls-1" d="M167.39,359.82q0-9.35,0-18.69c0-2.06,0-2.07,2.12-2.11,1.5,0,3,0,4.5,0s1.66.1,1.71,1.8v.71q0,18.11,0,36.2c0,.55,0,1.1,0,1.66,0,.92-.37,1.47-1.41,1.46-1.81,0-3.63,0-5.44,0-1.15,0-1.48-.59-1.47-1.64,0-2.84,0-5.68,0-8.52V359.82Z"/><path class="cls-2" d="M175.11,100.5a45.81,45.81,0,1,0-44.44,46.11c25.27-.77,44.44-21.2,44.44-46.11m46.38-.48a61.79,61.79,0,0,1-1.68,14.27c-.4,1.92-.61,3.88-1,5.81a105.53,105.53,0,0,1-3.34,11.27c-.84,2.54-1.59,5.11-2.41,7.65-.5,1.57-1,3.15-1.61,4.68-1.47,3.63-2.66,7.37-4.18,11-1.95,4.62-3.81,9.29-5.83,13.89-2.36,5.39-4.68,10.8-7.28,16.07-3.19,6.49-6.2,13.07-9.39,19.55-2.28,4.63-5,9-6.89,13.9a53,53,0,0,1-2.8,5.15c-2.5,4.7-4.94,9.43-7.44,14.13-1.51,2.84-3.08,5.65-4.64,8.46-2.71,4.86-5.41,9.74-8.19,14.56-1.83,3.19-3.77,6.32-5.5,9.54-3.39,6.29-7.31,12.24-10.92,18.39-2.21,3.77-4.78,7.34-7.27,10.95-1.26,1.83-2.42,1.62-3.51-.31-1.69-3-3.27-6-5.24-8.88-1.15-1.66-2-3.53-3-5.31-3.17-5.61-6.65-11-9.7-16.71-1.34-2.49-2.88-4.87-4.28-7.33-1.51-2.67-2.93-5.38-4.43-8.06-1.65-2.94-3.42-5.82-5-8.81-2.15-4.1-4.66-8-6.61-12.21-.59-1.28-1.35-2.49-2-3.72-3-5.33-5.77-10.78-8.46-16.26-1.59-3.24-3.44-6.34-5.09-9.55-1.18-2.3-2.23-4.67-3.36-7-2.71-5.56-5.47-11.1-8.14-16.69-1.35-2.82-2.57-5.71-3.82-8.58-2.67-6.19-5.45-12.34-8-18.6s-4.84-12.43-6.82-18.81c-1.2-3.83-2.49-7.63-3.51-11.5-.8-3-1.33-6.13-2-9.21A71.14,71.14,0,0,1,37,101a65.48,65.48,0,0,1,.49-8,101.52,101.52,0,0,1,2.21-14.2A66.26,66.26,0,0,1,43,68.45a81.87,81.87,0,0,1,5-11.14c3.27-5.64,6.54-11.25,11.1-16,1.47-1.53,2.67-3.31,4.15-4.82A93.15,93.15,0,0,1,81.88,21.78a83.46,83.46,0,0,1,14-6.72,105.91,105.91,0,0,1,11.91-3.74,74,74,0,0,1,12.81-2.07c2.75-.16,5.49-.45,8.26-.47a101.28,101.28,0,0,1,22,2.45A61.19,61.19,0,0,1,162,14.86c2.81,1.2,5.74,2.18,8.46,3.58a96.29,96.29,0,0,1,18,11.86,93.46,93.46,0,0,1,15.39,16.47,86.3,86.3,0,0,1,11,20.15c.87,2.27,1.83,4.5,2.57,6.83,2,6.18,2.75,12.58,3.57,19,.31,2.43.34,4.86.41,7.29"/><path class="cls-1" d="M118,82.34c3.38-.26,6.77,1.5,9.65,4.47.39.4.79.78,1.21,1.14a1.45,1.45,0,0,0,2.12,0c.63-.59,1.24-1.2,1.85-1.82,4.83-4.91,13.84-4.89,18.55-.57a13.9,13.9,0,0,1,2.14,17.68,21.17,21.17,0,0,1-3.41,3.9,2.13,2.13,0,0,1-3.27-.86c-.18-.53.17-.88.5-1.22.82-.85,1.69-1.66,2.45-2.56a10.14,10.14,0,0,0,0-13.6A9.71,9.71,0,0,0,137.39,87c-2,1.24-3.6,3-5.35,4.64s-2.54,1.67-4.35-.07a38.42,38.42,0,0,0-4.75-4.26,9.86,9.86,0,0,0-15.19,5.83,10,10,0,0,0,2.25,9.28c.73.82,1.53,1.59,2.28,2.39.44.48,1.27.85.51,1.72-1.06,1.22-2.08,1.53-3,.66a18.15,18.15,0,0,1-5-7.09A13.6,13.6,0,0,1,110,84.21c2.07-1.44,4.18-2,8-1.87"/><path class="cls-1" d="M142.44,101.74c-.8,3.24.8,5.42,3.13,7.35,1.1.9,2.05,2,3.07,2.94a5.38,5.38,0,0,1,1.26,1.7,2.15,2.15,0,0,1-.69,2.74c-.94.79-1.76.37-2.51-.32-2-1.88-4-3.76-6-5.67-3.13-3-6.22-6-9.35-9-1.61-1.55-2.1-1.58-3.74,0-4.68,4.44-9.32,8.93-14,13.4-.57.54-1.16,1.07-1.77,1.56a1.67,1.67,0,0,1-2,.31,2.13,2.13,0,0,1-1.09-2,3,3,0,0,1,1-2.29c5.93-5.75,11.84-11.53,17.79-17.27,1.39-1.33,2.28-1.3,3.66,0,1.55,1.45,3.06,3,4.59,4.43l.68.66c.35.33.73.67,1.24.5s.41-.77.45-1.22c.23-2.15.82-2.63,2.8-2.41a1.37,1.37,0,0,1,1.41,1.52v3.07"/><path class="cls-1" d="M142,114.78a1.65,1.65,0,0,1-.65,1c-3.22,3.22-6.42,6.48-9.68,9.66-1.45,1.41-2.13,1.39-3.59,0-3.18-3.15-6.31-6.35-9.45-9.55-.49-.49-1.12-1-.41-1.77.86-1,1.87-1.29,2.63-.59,1.56,1.43,3,3,4.53,4.46,1,1,2,2,3,3,1.37,1.22,1.71,1.22,3.15-.17,2.31-2.24,4.56-4.55,6.87-6.8,1.23-1.19,2.32-1.08,3.31.25a2.83,2.83,0,0,1,.26.53"/><polygon class="cls-3" points="125.69 108.01 125.69 108.01 125.69 111.44 129.13 111.44 129.13 108.01 125.69 108.01"/><polygon class="cls-3" points="125.69 112.25 125.69 112.25 125.69 115.69 129.13 115.69 129.13 112.25 125.69 112.25"/><polygon class="cls-3" points="130.04 108.01 130.04 108.01 130.04 111.44 133.48 111.44 133.48 108.01 130.04 108.01"/><polygon class="cls-3" points="130.04 112.25 130.04 112.25 130.04 115.69 133.48 115.69 133.48 112.25 130.04 112.25"/><path class="cls-3" d="M221.51,416.78h-3.82l-4.49,7.46-4.49-7.46h-4.12l6.5,10.8v6H215v-5.95Zm-32.84,16.8h3.89V420h5.38v-3.17H183.3V420h5.37Zm-17.44-10.71a2.66,2.66,0,0,1-.92,2.16,4,4,0,0,1-2.66.77h-3.17V420h3.17a4.08,4.08,0,0,1,2.66.75,2.67,2.67,0,0,1,.92,2.17m4.24,10.71-3.76-5.4a5.49,5.49,0,0,0,3.45-5.31,5.56,5.56,0,0,0-3.42-5.35,9.41,9.41,0,0,0-3.87-.74h-7.28v16.8h3.89V428.9h3.58l3.24,4.68Zm-34.31-3.12v-3.89H149v-3h-7.79V419.9H150v-3.12h-12.7v16.8h13v-3.12Zm-21.34-4.68h-3.17V420h3.17a4.09,4.09,0,0,1,2.66.75,2.67,2.67,0,0,1,.92,2.17,2.63,2.63,0,0,1-.92,2.15,4,4,0,0,1-2.66.76m.22-9h-7.28v16.8h3.89V429H120a9.44,9.44,0,0,0,3.87-.74,5.57,5.57,0,0,0,2.53-2.11,6.32,6.32,0,0,0,0-6.47,5.75,5.75,0,0,0-2.53-2.11,9.44,9.44,0,0,0-3.87-.74m-26.6,13.77a5.26,5.26,0,0,1-2.68-.68A4.89,4.89,0,0,1,88.87,428a5.64,5.64,0,0,1-.68-2.78,5.71,5.71,0,0,1,.68-2.79,4.86,4.86,0,0,1,1.89-1.9,5.57,5.57,0,0,1,5.37,0,4.93,4.93,0,0,1,1.89,1.9,5.71,5.71,0,0,1,.68,2.79A5.64,5.64,0,0,1,98,428a5,5,0,0,1-1.89,1.91,5.27,5.27,0,0,1-2.69.68m0,3.32a9.76,9.76,0,0,0,4.71-1.13,8.56,8.56,0,0,0,3.29-3.11,8.85,8.85,0,0,0,0-8.9,8.56,8.56,0,0,0-3.29-3.11,10.38,10.38,0,0,0-9.42,0,8.35,8.35,0,0,0-3.29,3.11,8.92,8.92,0,0,0,0,8.9,8.35,8.35,0,0,0,3.29,3.11,9.82,9.82,0,0,0,4.71,1.13m-22.34-11a2.66,2.66,0,0,1-.91,2.16,4,4,0,0,1-2.67.77H64.36V420h3.16a4.12,4.12,0,0,1,2.67.75,2.66,2.66,0,0,1,.91,2.17m4.25,10.71-3.77-5.4A5.48,5.48,0,0,0,75,422.87a5.87,5.87,0,0,0-.89-3.24,5.81,5.81,0,0,0-2.53-2.11,9.46,9.46,0,0,0-3.88-.74H60.47v16.8h3.89V428.9h3.57l3.24,4.68ZM43,425.78H39.83V420H43a4.11,4.11,0,0,1,2.66.75,2.66,2.66,0,0,1,.91,2.17,2.62,2.62,0,0,1-.91,2.15,4.06,4.06,0,0,1-2.66.76m.21-9H35.94v16.8h3.89V429h3.38a9.46,9.46,0,0,0,3.88-.74,5.62,5.62,0,0,0,2.53-2.11,5.82,5.82,0,0,0-2.53-8.58,9.46,9.46,0,0,0-3.88-.74"/></svg>