<?xml version="1.0" encoding="utf-8"?>
<!-- Generator: Adobe Illustrator 25.4.1, SVG Export Plug-In . SVG Version: 6.00 Build 0)  -->
<svg version="1.1" id="Layer_1" xmlns="http://www.w3.org/2000/svg" xmlns:xlink="http://www.w3.org/1999/xlink" x="0px" y="0px"
	 viewBox="0 0 254.2 442.6" style="enable-background:new 0 0 254.2 442.6;" xml:space="preserve">
<style type="text/css">
	.st0{fill:#2C2D2F;}
	.st1{fill:#00A1B6;}
	.st2{fill:#373535;}
</style>
<path class="st0" d="M20.5,346.5L20.5,346.5c-1.3,0-2.7,0-4,0c-0.9,0-1.3,0.2-1.3,1.2c0,3.6,0,7.3,0,10.9c0,0.9,0.3,1.3,1.3,1.3
	c2.7,0,5.4,0,8-0.1c2-0.1,3.4-1.2,4.2-2.9c0.8-1.7,1.1-3.6,0.7-5.5c-0.8-3.2-3-5.1-6-4.8C22.4,346.6,21.5,346.5,20.5,346.5 M7,360
	c0-6.2,0-12.4,0-18.7c0-2.1,0-2.1,2-2.1c5,0,9.9,0.1,14.9,0c8.5-0.1,14.7,7.7,14,15.1c-0.7,7.4-6.1,12.7-13.2,12.8
	c-2.4,0-4.7,0-7.1,0c-2.7,0-2.4-0.1-2.4,2.5c0,3.2,0,6.3,0,9.5c0,1.9-0.1,1.9-2,2c-1.4,0-2.8,0.1-4.3,0c-1.8,0-1.9-0.1-1.9-1.9
	c0-3,0-6,0-9C7,366.8,7,363.4,7,360"/>
<path class="st0" d="M85.7,364.9c0,4.2,0.5,5.7,2.7,7.6c3.4,3.1,7.7,2.5,10.2,0.1c2.8-2.7,3.6-7.9,1.9-11.4c-2-4-6.4-5.5-9.6-4.4
	C87.3,358,85.7,360.3,85.7,364.9 M85.9,376.9c-0.4,0.6-0.2,1.3-0.2,2c0,3.9,0,7.7,0,11.6c0,2.9,0,2.9-3,2.9c-1.1,0-2.2,0-3.3,0
	c-1.2,0.1-1.7-0.5-1.7-1.7c0-0.6,0-1.1,0-1.7c0-12.5,0-25.1,0-37.6c0-2.2,0-2.3,2.2-2.3c1.5,0,3.2-0.6,4.4,0.3
	c1.2,0.9-0.1,2.7,0.7,4c0.3,0.1,0.4,0,0.6-0.2c4.5-6.2,15-6.5,20.7,0.8c5.1,6.6,4.5,15.9-0.4,21.9c-4.7,5.7-13.2,5.9-18.3,1
	C87,377.7,86.8,376.9,85.9,376.9"/>
<path class="st0" d="M122.9,364.6c0,1.2,0,2,0,2.8c0.1,5.1,6.3,8.8,11,6.6c4.3-2,6.7-10,2.3-14.9c-2.5-2.8-7.9-3.9-11.6-0.2
	C122.9,360.7,122.8,362.7,122.9,364.6 M123.2,376.7c-0.5,0.8-0.3,1.7-0.3,2.5c0,4,0,8,0,12.1c0,2.1,0,2.1-2.1,2.2c-1.5,0-3,0-4.5,0
	c-1.1,0-1.6-0.5-1.5-1.6c0-1.3,0-2.5,0-3.8c0-11.7,0-23.3,0-35c0-0.5,0-0.9,0-1.4c-0.1-1.2,0.5-1.5,1.5-1.5c1.3,0,2.7,0,4,0
	c1.1,0,1.6,0.5,1.5,1.6c0,0.8-0.2,1.7,0.1,2.4c0.5,0.3,0.7,0,0.9-0.3c6.4-7.2,18.5-5.4,22.6,4.9c2.4,6,1.7,11.9-2,17.3
	c-4.5,6.7-14.9,7.1-19.6,1.1C123.7,377,123.6,376.7,123.2,376.7"/>
<path class="st0" d="M64.3,365.5c-0.1-0.7-0.1-1.4-0.2-2.1c-0.6-3.8-3.2-6.4-7-6.9c-2.4-0.3-6.1,1-7.7,4.7
	c-1.5,3.6-1.3,7.1,0.9,10.3c3,4.4,9.7,4.1,12.5-0.4C63.9,369.4,64.3,367.5,64.3,365.5 M72.5,365.5c-0.1,8.9-6.2,15.9-15.9,16
	c-9.5,0.1-16.4-6.6-16.3-16.1c0.1-8.7,6-15.7,16.2-15.8C66.2,349.5,72.5,357,72.5,365.5"/>
<path class="st0" d="M226,354.9c1.8-2.1,3.9-3.7,6.4-4.5c1.8-0.6,3.7-0.9,5.6-0.9c4.7,0,8,3,8.7,8c0.2,1.3,0.3,2.7,0.3,4
	c0,5.6,0,11.2,0,16.8c0,0.5,0,0.9,0,1.4c0,0.9-0.5,1.3-1.3,1.3c-1.7,0-3.3,0-5,0c-1.5,0-1.7-0.2-1.7-1.8c0-4.6,0-9.1,0-13.7
	c0-1.3-0.1-2.7-0.2-4c-0.4-3.8-3.4-5.7-6.9-4.2c-2.7,1.1-5.8,4.1-5.6,8c0.3,4.5,0.1,9,0.1,13.5c0,2.3,0,2.3-2.4,2.3
	c-1.4,0-2.8,0-4.3,0c-1,0-1.4-0.5-1.4-1.5c0-0.4,0-0.8,0-1.2c0-8.7,0-17.5,0-26.2c0-1.8,0-1.9,1.8-1.9c1.7,0,3.5-0.5,4.9,0.2
	C226.5,351.1,225,353.3,226,354.9"/>
<path class="st0" d="M190.5,354.9c3.8-4.3,8.2-5.7,13.4-5.2c3.7,0.4,5.9,2.7,6.9,6.2c0.5,1.8,0.8,3.7,0.8,5.6c0,5.8,0,11.5,0,17.3
	c0,2.2,0,2.2-2.3,2.2c-1.3,0-2.5,0-3.8,0c-1.9,0-2-0.1-2-2c0-4.7,0-9.5,0-14.2c0-1.3,0-2.7-0.3-4c-0.8-3.5-3.5-4.9-6.8-3.7
	c-3.2,1.1-5.4,4.4-5.4,7.8c0,4.3,0,8.7,0,13c0,3,0,3-3.1,3.1c-1.1,0-2.2-0.1-3.3,0c-1.2,0.1-1.7-0.5-1.6-1.7c0-0.7,0-1.4,0-2.1
	c0-8.3,0-16.6,0-24.8c0-2.1,0-2.1,2-2.1c1.3,0,2.7,0,4,0c1,0,1.4,0.4,1.4,1.5C190.2,352.6,190.1,353.7,190.5,354.9"/>
<path class="st0" d="M166.8,360c0-6.2,0-12.5,0-18.7c0-2.1,0-2.1,2.1-2.1c1.5,0,3,0,4.5,0c1.6,0,1.7,0.1,1.7,1.8c0,0.2,0,0.5,0,0.7
	c0,12.1,0,24.1,0,36.2c0,0.6,0,1.1,0,1.7c0,0.9-0.4,1.5-1.4,1.5c-1.8,0-3.6,0-5.4,0c-1.2,0-1.5-0.6-1.5-1.6c0-2.8,0-5.7,0-8.5
	C166.8,367.2,166.8,363.6,166.8,360L166.8,360z"/>
<path class="st1" d="M174.6,100.6C174.2,75,153.7,55,128.3,55.2C102,55.5,81.9,77.1,83,102.7c1,25,21.4,44.8,47.1,44
	C155.4,146,174.6,125.6,174.6,100.6 M220.9,100.2c0.1,4.8-0.7,9.6-1.7,14.3c-0.4,1.9-0.6,3.9-1,5.8c-0.8,3.8-2.1,7.5-3.3,11.3
	c-0.8,2.5-1.6,5.1-2.4,7.7c-0.5,1.6-1,3.1-1.6,4.7c-1.5,3.6-2.7,7.4-4.2,11c-2,4.6-3.8,9.3-5.8,13.9c-2.4,5.4-4.7,10.8-7.3,16.1
	c-3.2,6.5-6.2,13.1-9.4,19.5c-2.3,4.6-5,9-6.9,13.9c-0.7,1.8-1.9,3.4-2.8,5.1c-2.5,4.7-4.9,9.4-7.4,14.1c-1.5,2.8-3.1,5.7-4.6,8.5
	c-2.7,4.9-5.4,9.7-8.2,14.6c-1.8,3.2-3.8,6.3-5.5,9.5c-3.4,6.3-7.3,12.2-10.9,18.4c-2.2,3.8-4.8,7.3-7.3,10.9
	c-1.3,1.8-2.4,1.6-3.5-0.3c-1.7-3-3.3-6-5.2-8.9c-1.2-1.7-2-3.5-3-5.3c-3.2-5.6-6.6-11-9.7-16.7c-1.3-2.5-2.9-4.9-4.3-7.3
	c-1.5-2.7-2.9-5.4-4.4-8.1c-1.6-2.9-3.4-5.8-5-8.8c-2.1-4.1-4.7-8-6.6-12.2c-0.6-1.3-1.4-2.5-2-3.7c-3-5.3-5.8-10.8-8.5-16.3
	c-1.6-3.2-3.4-6.3-5.1-9.5c-1.2-2.3-2.2-4.7-3.4-7c-2.7-5.6-5.5-11.1-8.1-16.7c-1.4-2.8-2.6-5.7-3.8-8.6c-2.7-6.2-5.5-12.3-8-18.6
	c-2.5-6.2-4.8-12.4-6.8-18.8c-1.2-3.8-2.5-7.6-3.5-11.5c-0.8-3-1.3-6.1-2-9.2c-0.8-3.5-1-7.2-1.2-10.8c-0.1-2.6,0.3-5.3,0.5-8
	c0.3-4.8,1.2-9.5,2.2-14.2c0.8-3.5,2-7,3.3-10.3c1.5-3.8,3-7.6,5-11.1c3.3-5.6,6.5-11.3,11.1-16c1.5-1.5,2.7-3.3,4.1-4.8
	c5.6-5.7,11.8-10.6,18.6-14.7c4.4-2.6,9.1-4.9,14-6.7c3.9-1.5,7.9-2.8,11.9-3.7c4.2-1,8.5-1.8,12.8-2.1c2.8-0.2,5.5-0.5,8.3-0.5
	c7.4,0,14.8,0.9,22,2.4c3.8,0.8,7.5,2.1,11.2,3.6c2.8,1.2,5.7,2.2,8.5,3.6c6.4,3.3,12.5,7.2,18.1,11.9c5.8,4.9,10.9,10.4,15.4,16.5
	c4.5,6.2,8.3,12.9,11,20.2c0.9,2.3,1.8,4.5,2.6,6.8c2,6.2,2.7,12.6,3.6,19C220.8,95.3,220.9,97.7,220.9,100.2"/>
<path class="st2" d="M124.3,102.3c-1.9,0.5-3.8,1.1-5.7,1.6c-6.1,1.6-12.1,3.1-18.2,4.6c-1.4,0.3-2.8,0.5-4.1,0.7
	c-0.9,0.1-1.5-0.7-1-1.6c0.2-0.4,0.6-0.9,1.1-1.1c4.3-2.7,8.5-5.3,12.8-7.9c0.5-0.3,0.6-0.6,0.6-1.1c0-0.9,0-1.8,0-2.7
	c0-0.8,0.3-1.1,1.1-1.1c0.5,0,1.1,0,1.6,0c0.8,0,1.2,0.3,1.2,1.1c0,0.3,0,0.6,0,1.1c1-0.6,1.9-1.2,2.8-1.7c0.1-0.1,0.2-0.3,0.2-0.4
	c0-0.9,0-1.9,0-2.8c0-0.8,0.4-1.2,1.2-1.2c0.5,0,1,0,1.5,0c0.7,0,1.1,0.4,1.1,1.1c0,0.3,0,0.6,0,1c1.2-0.8,2.3-1.4,3.4-2.1
	c0.4-0.2,0.4-0.6,0.4-1c-0.1-2.6-0.1-5.2-0.2-7.7c0-2.4,0-4.8,0.1-7.1c0.1-2.1,0.7-4.2,1.8-6c0.3-0.5,0.7-1,1.1-1.4
	c1-1.1,3.2-1.1,4.3,0c1.2,1.1,1.8,2.6,2.3,4.1c0.7,2.2,0.8,4.5,0.8,6.9c-0.1,3.7-0.1,7.3-0.2,11c0,0.8,0.2,1.4,0.9,1.8
	c0.9,0.5,1.8,1.1,2.8,1.7c0-0.4,0-0.7,0-1c0-0.7,0.4-1.1,1.1-1.1c0.6,0,1.1,0,1.7,0c0.7,0,1.1,0.4,1.1,1.1c0,1,0,1.9,0,2.9
	c0,0.2,0.1,0.4,0.2,0.5c0.9,0.6,1.8,1.1,2.7,1.6c0.1,0,0.1,0,0.2,0c0-0.4-0.1-0.7-0.1-1.1c0-0.7,0.3-1,1-1.1c0.6,0,1.2,0,1.8,0
	c0.6,0,1,0.4,1,1c0,1,0,2.1,0,3.1c0,0.3,0.1,0.5,0.4,0.6c4.2,2.6,8.4,5.2,12.7,7.8c0.4,0.3,0.8,0.6,1.2,1c0.2,0.2,0.3,0.5,0.4,0.8
	c0.1,0.8-0.3,1.3-1.1,1.2c-1.4-0.2-2.8-0.3-4.2-0.7c-6.9-1.7-13.8-3.5-20.8-5.3c-1.1-0.3-2.1-0.6-3.2-0.9c0,0.8,0,1.4,0,2.1
	c-0.1,4.5-0.1,8.9-0.2,13.4c0,1.3,0.5,2.3,1.4,3.1c1.2,1.2,2.6,2.3,3.8,3.4c0.5,0.4,1,0.9,1.4,1.3c0.5,0.5,0.6,1.1,0.7,1.7
	c0,0.5,0,1-0.1,1.5c-0.1,0.8-0.3,0.9-1,0.5c-2.2-1.1-4.3-2.1-6.5-3.2c-1.1-0.5-2.1-1-3.2-1.5c-0.7-0.3-1.5-0.3-2.2,0
	c-1.3,0.6-2.5,1.2-3.8,1.8c-2,1-4,1.9-5.9,2.9c-0.6,0.3-0.8,0.2-0.9-0.4c-0.1-0.5-0.1-1.1-0.1-1.6c0-0.8,0.3-1.4,0.9-1.9
	c1.3-1.1,2.6-2.2,3.9-3.4c0.7-0.7,1.4-1.4,2-2.2c0.3-0.4,0.5-1.1,0.5-1.6c0-5.2-0.1-10.3-0.2-15.5
	C124.3,102.6,124.3,102.5,124.3,102.3"/>
<g>
	<path class="st2" d="M67.1,420.1h-5.4v-3.2h14.6v3.2H71v13.6h-3.9V420.1z"/>
	<path class="st2" d="M96.4,433.7l-3.2-4.7h-0.2h-3.4v4.7h-3.9v-16.8h7.3c1.5,0,2.8,0.2,3.9,0.7c1.1,0.5,1.9,1.2,2.5,2.1
		s0.9,2,0.9,3.2s-0.3,2.3-0.9,3.2c-0.6,0.9-1.5,1.6-2.6,2.1l3.8,5.4H96.4z M95.4,420.8c-0.6-0.5-1.5-0.8-2.7-0.8h-3.2v5.9h3.2
		c1.2,0,2.1-0.3,2.7-0.8c0.6-0.5,0.9-1.2,0.9-2.2C96.3,422.1,96,421.4,95.4,420.8z"/>
	<path class="st2" d="M121.6,430.1h-7.8l-1.5,3.6h-4l7.5-16.8h3.8l7.5,16.8h-4.1L121.6,430.1z M120.3,427.2l-2.7-6.4l-2.7,6.4H120.3
		z"/>
	<path class="st2" d="M151.3,416.9l-7.3,16.8h-3.8l-7.2-16.8h4.2l5.1,12l5.2-12H151.3z"/>
	<path class="st2" d="M172.9,430.6v3.1h-13v-16.8h12.7v3.1h-8.8v3.6h7.8v3h-7.8v3.9H172.9z"/>
	<path class="st2" d="M183.2,416.9h3.9v13.6h8.4v3.2h-12.3V416.9z"/>
</g>
</svg>
