<?xml version="1.0" encoding="utf-8"?>
<!-- Generator: Adobe Illustrator 25.4.1, SVG Export Plug-In . SVG Version: 6.00 Build 0)  -->
<svg version="1.1" id="Layer_1" xmlns="http://www.w3.org/2000/svg" xmlns:xlink="http://www.w3.org/1999/xlink" x="0px" y="0px"
	 viewBox="0 0 607.5 310" style="enable-background:new 0 0 607.5 310;" xml:space="preserve">
<style type="text/css">
	.st0{fill:#00A1B6;}
	.st1{fill:#373535;}
	.st2{fill:#2C2D2F;}
</style>
<g>
	<path class="st0" d="M153.2,100.5c-0.4-25.7-20.9-45.7-46.3-45.4c-26.2,0.3-46.3,21.9-45.3,47.5c1,25,21.4,44.8,47.1,44
		C134.1,145.8,153.2,125.4,153.2,100.5 M199.6,100c0.1,4.8-0.7,9.6-1.7,14.3c-0.4,1.9-0.6,3.9-1,5.8c-0.8,3.8-2.1,7.5-3.3,11.3
		c-0.8,2.5-1.6,5.1-2.4,7.7c-0.5,1.6-1,3.1-1.6,4.7c-1.5,3.6-2.7,7.4-4.2,11c-2,4.6-3.8,9.3-5.8,13.9c-2.4,5.4-4.7,10.8-7.3,16.1
		c-3.2,6.5-6.2,13.1-9.4,19.5c-2.3,4.6-5,9-6.9,13.9c-0.7,1.8-1.9,3.4-2.8,5.1c-2.5,4.7-4.9,9.4-7.4,14.1c-1.5,2.8-3.1,5.7-4.6,8.5
		c-2.7,4.9-5.4,9.7-8.2,14.6c-1.8,3.2-3.8,6.3-5.5,9.5c-3.4,6.3-7.3,12.2-10.9,18.4c-2.2,3.8-4.8,7.3-7.3,10.9
		c-1.3,1.8-2.4,1.6-3.5-0.3c-1.7-3-3.3-6-5.2-8.9c-1.2-1.7-2-3.5-3-5.3c-3.2-5.6-6.6-11-9.7-16.7c-1.3-2.5-2.9-4.9-4.3-7.3
		c-1.5-2.7-2.9-5.4-4.4-8.1c-1.6-2.9-3.4-5.8-5-8.8c-2.1-4.1-4.7-8-6.6-12.2c-0.6-1.3-1.4-2.5-2-3.7c-3-5.3-5.8-10.8-8.5-16.3
		c-1.6-3.2-3.4-6.3-5.1-9.5c-1.2-2.3-2.2-4.7-3.4-7c-2.7-5.6-5.5-11.1-8.1-16.7c-1.4-2.8-2.6-5.7-3.8-8.6c-2.7-6.2-5.5-12.3-8-18.6
		c-2.5-6.2-4.8-12.4-6.8-18.8c-1.2-3.8-2.5-7.6-3.5-11.5c-0.8-3-1.3-6.1-2-9.2c-0.8-3.5-1-7.2-1.2-10.8c-0.1-2.6,0.3-5.3,0.5-8
		c0.3-4.8,1.2-9.5,2.2-14.2c0.8-3.5,2-7,3.3-10.3c1.5-3.8,3-7.6,5-11.1c3.3-5.6,6.5-11.3,11.1-16c1.5-1.5,2.7-3.3,4.1-4.8
		c5.6-5.7,11.8-10.6,18.6-14.7c4.4-2.6,9.1-4.9,14-6.7c3.9-1.5,7.9-2.8,11.9-3.7c4.2-1,8.5-1.8,12.8-2.1c2.8-0.2,5.5-0.5,8.3-0.5
		c7.4,0,14.8,0.9,22,2.4c3.8,0.8,7.5,2.1,11.2,3.6c2.8,1.2,5.7,2.2,8.5,3.6c6.4,3.3,12.5,7.2,18.1,11.9c5.8,4.9,10.9,10.4,15.4,16.5
		c4.5,6.2,8.3,12.9,11,20.2c0.9,2.3,1.8,4.5,2.6,6.8c2,6.2,2.7,12.6,3.6,19C199.5,95.2,199.5,97.6,199.6,100"/>
	<path class="st1" d="M103,102.2c-1.9,0.5-3.8,1.1-5.7,1.6c-6.1,1.6-12.1,3.1-18.2,4.6c-1.4,0.3-2.8,0.5-4.1,0.7
		c-0.9,0.1-1.5-0.7-1-1.6c0.2-0.4,0.6-0.9,1.1-1.1c4.3-2.7,8.5-5.3,12.8-7.9c0.5-0.3,0.6-0.6,0.6-1.1c0-0.9,0-1.8,0-2.7
		c0-0.8,0.3-1.1,1.1-1.1c0.5,0,1.1,0,1.6,0c0.8,0,1.2,0.3,1.2,1.1c0,0.3,0,0.6,0,1.1c1-0.6,1.9-1.2,2.8-1.7c0.1-0.1,0.2-0.3,0.2-0.4
		c0-0.9,0-1.9,0-2.8c0-0.8,0.4-1.2,1.2-1.2c0.5,0,1,0,1.5,0c0.7,0,1.1,0.4,1.1,1.1c0,0.3,0,0.6,0,1c1.2-0.8,2.3-1.4,3.4-2.1
		c0.4-0.2,0.4-0.6,0.4-1c-0.1-2.6-0.1-5.2-0.2-7.7c0-2.4,0-4.8,0.1-7.1c0.1-2.1,0.7-4.2,1.8-6c0.3-0.5,0.7-1,1.1-1.4
		c1-1.1,3.2-1.1,4.3,0c1.2,1.1,1.8,2.6,2.3,4.1c0.7,2.2,0.8,4.5,0.8,6.9c-0.1,3.7-0.1,7.3-0.2,11c0,0.8,0.2,1.4,0.9,1.8
		c0.9,0.5,1.8,1.1,2.8,1.7c0-0.4,0-0.7,0-1c0-0.7,0.4-1.1,1.1-1.1c0.6,0,1.1,0,1.7,0c0.7,0,1.1,0.4,1.1,1.1c0,1,0,1.9,0,2.9
		c0,0.2,0.1,0.4,0.2,0.5c0.9,0.6,1.8,1.1,2.7,1.6c0.1,0,0.1,0,0.2,0c0-0.4-0.1-0.7-0.1-1.1c0-0.7,0.3-1,1-1.1c0.6,0,1.2,0,1.8,0
		c0.6,0,1,0.4,1,1c0,1,0,2.1,0,3.1c0,0.3,0.1,0.5,0.4,0.6c4.2,2.6,8.4,5.2,12.7,7.8c0.4,0.3,0.8,0.6,1.2,1c0.2,0.2,0.3,0.5,0.4,0.8
		c0.1,0.8-0.3,1.3-1.1,1.2c-1.4-0.2-2.8-0.3-4.2-0.7c-6.9-1.7-13.8-3.5-20.8-5.3c-1.1-0.3-2.1-0.6-3.2-0.9c0,0.8,0,1.4,0,2.1
		c-0.1,4.5-0.1,8.9-0.2,13.4c0,1.3,0.5,2.3,1.4,3.1c1.2,1.2,2.6,2.3,3.8,3.4c0.5,0.4,1,0.9,1.4,1.3c0.5,0.5,0.6,1.1,0.7,1.7
		c0,0.5,0,1-0.1,1.5c-0.1,0.8-0.3,0.9-1,0.5c-2.2-1.1-4.3-2.1-6.5-3.2c-1.1-0.5-2.1-1-3.2-1.5c-0.7-0.3-1.5-0.3-2.2,0
		c-1.3,0.6-2.5,1.2-3.8,1.8c-2,1-4,1.9-5.9,2.9c-0.6,0.3-0.8,0.2-0.9-0.4c-0.1-0.5-0.1-1.1-0.1-1.6c0-0.8,0.3-1.4,0.9-1.9
		c1.3-1.1,2.6-2.2,3.9-3.4c0.7-0.7,1.4-1.4,2-2.2c0.3-0.4,0.5-1.1,0.5-1.6c0-5.2-0.1-10.3-0.2-15.5C103,102.5,103,102.4,103,102.2"
		/>
</g>
<g>
	<path class="st2" d="M243.9,75.3L243.9,75.3c-2,0-4.1,0-6.1,0c-1.3,0-2,0.4-2,1.8c0,5.5,0,11.1,0,16.6c0,1.4,0.5,2,1.9,1.9
		c4.1-0.1,8.2,0,12.3-0.1c3-0.1,5.2-1.8,6.5-4.5c1.3-2.7,1.7-5.5,1-8.4c-1.2-5-4.5-7.8-9.2-7.3C246.8,75.4,245.4,75.3,243.9,75.3
		 M223.3,95.8c0-9.5,0-19,0-28.5c0-3.2,0-3.3,3-3.3c7.6,0,15.2,0.1,22.7,0c13-0.2,22.4,11.7,21.4,23.1c-1.1,11.4-9.3,19.5-20.2,19.6
		c-3.6,0-7.2,0-10.8,0c-4.1,0-3.6-0.2-3.6,3.8c0,4.8,0,9.6,0,14.4c0,2.9-0.1,2.9-3.1,3c-2.2,0.1-4.3,0.1-6.5,0
		c-2.8-0.1-2.9-0.1-2.9-2.8c-0.1-4.6,0-9.1,0-13.7C223.3,106.2,223.3,101,223.3,95.8"/>
	<path class="st2" d="M343.5,103.4c0,6.5,0.8,8.7,4.1,11.7c5.2,4.7,11.7,3.8,15.6,0.1c4.3-4.2,5.5-12,2.9-17.4
		c-3-6.1-9.8-8.4-14.7-6.8C345.9,92.8,343.5,96.3,343.5,103.4 M343.9,121.7c-0.6,0.9-0.3,2-0.3,3c0,5.9,0,11.8,0,17.7
		c0,4.4,0,4.4-4.6,4.5c-1.7,0-3.4-0.1-5.1,0c-1.9,0.1-2.6-0.8-2.6-2.6c0-0.8,0-1.7,0-2.5c0-19.2,0-38.3,0-57.5c0-3.4,0-3.5,3.3-3.5
		c2.3,0,4.9-0.9,6.7,0.4c1.8,1.3-0.1,4.1,1,6.1c0.4,0.2,0.7,0,0.9-0.3c6.9-9.5,23-9.9,31.5,1.3c7.7,10.1,6.9,24.4-0.7,33.5
		c-7.2,8.7-20.2,9.1-27.9,1.5C345.5,122.8,345.2,121.7,343.9,121.7"/>
	<path class="st2" d="M400.3,102.8c0,1.8,0,3,0,4.2c0.2,7.9,9.7,13.4,16.8,10.1c6.6-3,10.3-15.2,3.5-22.7c-3.8-4.2-12-6-17.6-0.2
		C400.3,96.9,400.1,100,400.3,102.8 M400.8,121.4c-0.8,1.2-0.4,2.6-0.4,3.8c0,6.1,0,12.3,0,18.4c0,3.2-0.1,3.3-3.1,3.3
		c-2.3,0-4.6,0-6.9,0c-1.7,0-2.4-0.8-2.4-2.4c0-1.9,0-3.9,0-5.8c0-17.8,0-35.6,0-53.4c0-0.7,0.1-1.5,0-2.2c-0.2-1.8,0.7-2.3,2.3-2.3
		c2,0.1,4.1,0,6.1,0c1.7,0,2.4,0.7,2.3,2.4c-0.1,1.3-0.3,2.6,0.1,3.7c0.8,0.5,1.1-0.1,1.4-0.4c9.8-11,28.2-8.2,34.6,7.5
		c3.7,9.1,2.6,18.1-3,26.4c-6.9,10.2-22.7,10.8-30,1.6C401.6,121.9,401.4,121.4,400.8,121.4"/>
	<path class="st2" d="M310.8,104.3c-0.1-1.1-0.1-2.2-0.3-3.2c-1-5.8-5-9.8-10.7-10.6c-3.7-0.5-9.3,1.5-11.7,7.2
		c-2.3,5.5-2.1,10.9,1.3,15.8c4.6,6.7,14.7,6.3,19.1-0.6C310.2,110.2,310.8,107.3,310.8,104.3 M323.4,104.3
		c-0.1,13.5-9.4,24.3-24.4,24.4c-14.6,0.1-25.1-10.1-24.9-24.6c0.2-13.3,9.2-24,24.7-24.2C313.7,79.9,323.4,91.3,323.4,104.3"/>
	<path class="st2" d="M557.7,88.1c2.8-3.3,5.9-5.6,9.8-6.8c2.8-0.9,5.6-1.4,8.5-1.3c7.2,0.1,12.1,4.6,13.3,12.2
		c0.3,2,0.5,4.1,0.5,6.1c0,8.5,0,17.1,0,25.6c0,0.7,0,1.4,0,2.2c0,1.3-0.7,1.9-2,1.9c-2.5,0-5.1,0-7.6-0.1c-2.4-0.1-2.6-0.3-2.6-2.8
		c0-7,0-14,0-20.9c0-2-0.1-4.1-0.3-6.1c-0.6-5.9-5.1-8.6-10.6-6.5c-4,1.6-8.8,6.3-8.5,12.2c0.4,6.8,0.1,13.7,0.1,20.6
		c0,3.5-0.1,3.5-3.7,3.6c-2.2,0-4.3,0-6.5,0c-1.5,0-2.2-0.8-2.1-2.3c0-0.6,0-1.2,0-1.8c0-13.4,0-26.7,0-40.1c0-2.8,0-2.8,2.8-2.9
		c2.5,0,5.4-0.7,7.5,0.3C558.5,82.3,556.2,85.6,557.7,88.1"/>
	<path class="st2" d="M503.6,88.1c5.7-6.5,12.6-8.7,20.5-7.9c5.7,0.6,9,4.1,10.6,9.5c0.8,2.8,1.2,5.6,1.2,8.6c0,8.8,0,17.6,0,26.4
		c0,3.3,0,3.3-3.5,3.3c-1.9,0-3.9,0-5.8,0c-3-0.1-3.1-0.1-3.1-3c0-7.2,0-14.5,0-21.7c0-2,0-4.1-0.5-6.1c-1.3-5.3-5.3-7.4-10.5-5.6
		c-4.8,1.8-8.3,6.7-8.3,11.9c0,6.6,0,13.3,0,19.9c0,4.6,0,4.6-4.8,4.7c-1.7,0-3.4-0.1-5.1,0c-1.9,0.1-2.6-0.8-2.5-2.6
		c0.1-1.1,0-2.2,0-3.3c0-12.6,0-25.3,0-37.9c0-3.2,0-3.2,3.1-3.2c2,0,4.1,0,6.1,0c1.5,0,2.1,0.7,2.1,2.2
		C503.1,84.6,502.9,86.2,503.6,88.1"/>
	<path class="st2" d="M467.4,95.8c0-9.5,0-19,0-28.5c0-3.1,0.1-3.2,3.2-3.2c2.3,0,4.6-0.1,6.9,0c2.5,0.1,2.5,0.1,2.6,2.7
		c0,0.4,0,0.7,0,1.1c0,18.4,0,36.9,0,55.3c0,0.8,0,1.7,0,2.5c0,1.4-0.6,2.3-2.2,2.2c-2.8,0-5.5,0-8.3,0c-1.8,0-2.3-0.9-2.2-2.5
		c0-4.3,0-8.7,0-13C467.4,106.9,467.4,101.3,467.4,95.8L467.4,95.8z"/>
	<g>
		<path class="st1" d="M315.1,187.6h-8.2v-4.8h22.4v4.8H321v20.8h-5.9V187.6z"/>
		<path class="st1" d="M359.8,208.4l-4.9-7.1h-0.3h-5.2v7.1h-5.9v-25.7h11.1c2.3,0,4.2,0.4,5.9,1.1c1.7,0.8,3,1.8,3.9,3.2
			c0.9,1.4,1.4,3,1.4,4.9c0,1.9-0.5,3.5-1.4,4.9c-0.9,1.4-2.2,2.4-3.9,3.2l5.8,8.2H359.8z M358.3,188.8c-0.9-0.8-2.3-1.2-4.1-1.2
			h-4.8v8.9h4.8c1.8,0,3.1-0.4,4.1-1.2c0.9-0.8,1.4-1.9,1.4-3.3C359.7,190.7,359.2,189.5,358.3,188.8z"/>
		<path class="st1" d="M398.3,202.9h-11.9l-2.3,5.5H378l11.4-25.7h5.9l11.5,25.7h-6.2L398.3,202.9z M396.4,198.4l-4.1-9.8l-4.1,9.8
			H396.4z"/>
		<path class="st1" d="M443.7,182.8l-11.1,25.7h-5.9l-11.1-25.7h6.4l7.8,18.3l7.9-18.3H443.7z"/>
		<path class="st1" d="M476.7,203.7v4.8h-19.9v-25.7h19.4v4.8h-13.5v5.6h11.9v4.6h-11.9v5.9H476.7z"/>
		<path class="st1" d="M492.4,182.8h5.9v20.8h12.9v4.8h-18.8V182.8z"/>
	</g>
</g>
</svg>
